<?xml version="1.0" standalone="no"?>
<!DOCTYPE svg PUBLIC "-//W3C//DTD SVG 20010904//EN"
 "http://www.w3.org/TR/2001/REC-SVG-20010904/DTD/svg10.dtd">
<svg version="1.0" xmlns="http://www.w3.org/2000/svg"
 width="260.000000pt" height="260.000000pt" viewBox="0 0 260.000000 260.000000"
 preserveAspectRatio="xMidYMid meet">
<metadata>
Created by potrace 1.11, written by Peter Selinger 2001-2013
</metadata>
<g transform="translate(0.000000,260.000000) scale(0.100000,-0.100000)"
fill="#000000" stroke="none">
<path d="M1559 2278 c-19 -29 -55 -79 -81 -112 -27 -33 -48 -66 -48 -73 0 -8
15 -26 32 -41 61 -50 423 -366 433 -377 6 -6 45 -42 88 -79 42 -38 77 -74 77
-81 0 -8 -19 -30 -42 -51 -24 -20 -34 -31 -23 -23 80 54 269 253 306 321 7 14
-50 62 -339 284 -191 147 -352 271 -358 276 -8 6 -23 -9 -45 -44z"/>
<path d="M758 1943 c-32 -8 -19 -37 50 -109 111 -118 344 -376 480 -530 34
-40 62 -78 62 -85 0 -13 -82 -74 -120 -90 -10 -5 -38 17 -85 65 -92 94 -306
323 -430 461 -163 180 -167 185 -186 185 -10 0 -44 -26 -76 -57 -32 -32 -63
-57 -70 -55 -6 1 -14 -2 -18 -8 -3 -5 1 -10 9 -10 9 0 15 -4 14 -9 -3 -9 628
-773 643 -779 4 -2 41 31 81 74 40 42 99 97 130 121 60 46 192 116 241 128 15
4 27 9 27 12 0 3 -154 160 -342 349 -354 356 -350 353 -410 337z"/>
<path d="M312 1692 c-21 -7 -22 -8 -7 -29 9 -13 21 -23 27 -23 7 0 25 -15 40
-32 21 -24 19 -19 -7 16 -19 28 -33 56 -31 63 3 7 4 13 3 12 -1 -1 -12 -4 -25
-7z"/>
<path d="M415 1550 c10 -11 20 -20 23 -20 3 0 -3 9 -13 20 -10 11 -20 20 -23
20 -3 0 3 -9 13 -20z"/>
<path d="M1940 1420 c-13 -8 -13 -10 2 -10 9 0 20 5 23 10 8 13 -5 13 -25 0z"/>
<path d="M1200 595 c13 -14 26 -25 28 -25 3 0 -5 11 -18 25 -13 14 -26 25 -28
25 -3 0 5 -11 18 -25z"/>
<path d="M1240 554 c0 -10 75 -103 87 -108 13 -6 73 46 73 63 0 18 -16 13 -48
-14 l-30 -25 -41 45 c-22 24 -41 42 -41 39z"/>
</g>
</svg>
